<svg width="800" height="1000" xmlns="http://www.w3.org/2000/svg">
  <defs>
    <style>
      .box { fill: #f8f9fa; stroke: #343a40; stroke-width: 2; }
      .process { fill: #e3f2fd; stroke: #1976d2; stroke-width: 2; }
      .decision { fill: #fff3e0; stroke: #f57c00; stroke-width: 2; }
      .end { fill: #e8f5e8; stroke: #388e3c; stroke-width: 2; }
      .reject { fill: #ffebee; stroke: #d32f2f; stroke-width: 2; }
      .text { font-family: Arial, sans-serif; font-size: 12px; text-anchor: middle; }
      .title { font-family: Arial, sans-serif; font-size: 16px; font-weight: bold; text-anchor: middle; }
      .arrow { stroke: #343a40; stroke-width: 2; fill: none; marker-end: url(#arrowhead); }
      .notification { fill: #f3e5f5; stroke: #7b1fa2; stroke-width: 2; }
    </style>
    <marker id="arrowhead" markerWidth="10" markerHeight="7" refX="9" refY="3.5" orient="auto">
      <polygon points="0 0, 10 3.5, 0 7" fill="#343a40" />
    </marker>
  </defs>

  <!-- Título -->
  <text x="400" y="30" class="title">Fluxograma de Aprovação - Processo de Adesão</text>

  <!-- Início -->
  <rect x="320" y="60" width="160" height="40" class="box" rx="5"/>
  <text x="400" y="85" class="text">Colaborador inicia</text>
  <text x="400" y="95" class="text">processo de adesão</text>

  <!-- Etapas 1-4 -->
  <rect x="320" y="130" width="160" height="50" class="process" rx="5"/>
  <text x="400" y="150" class="text">Etapas 1-4:</text>
  <text x="400" y="165" class="text">Dados Pessoais, Documentos,</text>
  <text x="400" y="175" class="text">Benefícios, Revisão</text>

  <!-- Finalização -->
  <rect x="320" y="210" width="160" height="40" class="process" rx="5"/>
  <text x="400" y="235" class="text">Sistema finaliza processo</text>
  <text x="400" y="245" class="text">Status: AGUARDANDO_APROVACAO</text>

  <!-- Notificação -->
  <rect x="50" y="280" width="200" height="60" class="notification" rx="5"/>
  <text x="150" y="300" class="text">Notificação enviada para:</text>
  <text x="150" y="315" class="text">• admin@empresa.com</text>
  <text x="150" y="325" class="text">• rh@empresa.com</text>
  <text x="150" y="335" class="text">• gerente@empresa.com</text>

  <rect x="550" y="280" width="200" height="60" class="notification" rx="5"/>
  <text x="650" y="300" class="text">Usuários com perfis:</text>
  <text x="650" y="315" class="text">• ADMIN</text>
  <text x="650" y="325" class="text">• MASTER</text>
  <text x="650" y="335" class="text">• RH</text>

  <!-- Decisão de Aprovação -->
  <polygon points="400,380 480,420 400,460 320,420" class="decision"/>
  <text x="400" y="415" class="text">Aprovação por</text>
  <text x="400" y="430" class="text">ADMIN/MASTER/RH</text>

  <!-- Aprovado -->
  <rect x="150" y="520" width="160" height="40" class="end" rx="5"/>
  <text x="230" y="545" class="text">APROVADO</text>

  <!-- Rejeitado -->
  <rect x="490" y="520" width="160" height="40" class="reject" rx="5"/>
  <text x="570" y="545" class="text">REJEITADO</text>

  <!-- Notificações finais -->
  <rect x="80" y="600" width="180" height="50" class="notification" rx="5"/>
  <text x="170" y="620" class="text">Notificação de aprovação</text>
  <text x="170" y="635" class="text">enviada ao colaborador</text>

  <rect x="520" y="600" width="180" height="50" class="notification" rx="5"/>
  <text x="610" y="620" class="text">Notificação de rejeição</text>
  <text x="610" y="635" class="text">enviada ao colaborador</text>

  <!-- Observações -->
  <rect x="50" y="720" width="700" height="120" class="box" rx="5"/>
  <text x="400" y="740" class="title">Observações Importantes:</text>
  <text x="70" y="765" class="text" text-anchor="start">1. O supervisor/gestor direto NÃO recebe notificações automáticas</text>
  <text x="70" y="780" class="text" text-anchor="start">2. Apenas usuários com perfis administrativos (ADMIN/MASTER/RH) podem aprovar</text>
  <text x="70" y="795" class="text" text-anchor="start">3. O campo supervisor é capturado no formulário mas não usado para notificações</text>
  <text x="70" y="810" class="text" text-anchor="start">4. Todas as notificações são enviadas via e-mail e sistema interno</text>
  <text x="70" y="825" class="text" text-anchor="start">5. O processo pode ser aprovado ou rejeitado apenas no status AGUARDANDO_APROVACAO</text>

  <!-- Setas -->
  <line x1="400" y1="100" x2="400" y2="130" class="arrow"/>
  <line x1="400" y1="180" x2="400" y2="210" class="arrow"/>
  <line x1="400" y1="250" x2="400" y2="380" class="arrow"/>
  
  <!-- Setas para notificações -->
  <line x1="320" y1="270" x2="250" y2="300" class="arrow"/>
  <line x1="480" y1="270" x2="550" y2="300" class="arrow"/>
  
  <!-- Setas de decisão -->
  <line x1="350" y1="440" x2="230" y2="520" class="arrow"/>
  <line x1="450" y1="440" x2="570" y2="520" class="arrow"/>
  
  <!-- Setas para notificações finais -->
  <line x1="230" y1="560" x2="170" y2="600" class="arrow"/>
  <line x1="570" y1="560" x2="610" y2="600" class="arrow"/>
  
  <!-- Labels das decisões -->
  <text x="290" y="485" class="text">Aprovado</text>
  <text x="510" y="485" class="text">Rejeitado</text>

</svg>